<mxfile host="65bd71144e">
    <diagram id="JCTpU6jSIJms-cjkOFw_" name="Page-2">
        <mxGraphModel dx="848" dy="545" grid="1" gridSize="10" guides="1" tooltips="1" connect="1" arrows="1" fold="1" page="1" pageScale="1" pageWidth="850" pageHeight="1100" math="0" shadow="0">
            <root>
                <mxCell id="0"/>
                <mxCell id="1" parent="0"/>
                <mxCell id="3HOikdQhbSTvWBSmgR4E-3" value="" style="edgeStyle=none;html=1;" parent="1" source="3HOikdQhbSTvWBSmgR4E-1" target="3HOikdQhbSTvWBSmgR4E-2" edge="1">
                    <mxGeometry relative="1" as="geometry"/>
                </mxCell>
                <mxCell id="3HOikdQhbSTvWBSmgR4E-1" value="sascode" style="rounded=0;whiteSpace=wrap;html=1;" parent="1" vertex="1">
                    <mxGeometry x="40" y="90" width="120" height="40" as="geometry"/>
                </mxCell>
                <mxCell id="3HOikdQhbSTvWBSmgR4E-5" value="" style="edgeStyle=none;html=1;" parent="1" source="3HOikdQhbSTvWBSmgR4E-2" target="3HOikdQhbSTvWBSmgR4E-4" edge="1">
                    <mxGeometry relative="1" as="geometry"/>
                </mxCell>
                <mxCell id="3HOikdQhbSTvWBSmgR4E-2" value="main sasdata" style="rounded=0;whiteSpace=wrap;html=1;" parent="1" vertex="1">
                    <mxGeometry x="40" y="170" width="120" height="40" as="geometry"/>
                </mxCell>
                <mxCell id="3HOikdQhbSTvWBSmgR4E-67" style="edgeStyle=none;html=1;exitX=0.5;exitY=1;exitDx=0;exitDy=0;" parent="1" source="3HOikdQhbSTvWBSmgR4E-4" target="3HOikdQhbSTvWBSmgR4E-6" edge="1">
                    <mxGeometry relative="1" as="geometry"/>
                </mxCell>
                <mxCell id="3HOikdQhbSTvWBSmgR4E-4" value="main xpt" style="rounded=0;whiteSpace=wrap;html=1;" parent="1" vertex="1">
                    <mxGeometry x="40" y="250" width="120" height="40" as="geometry"/>
                </mxCell>
                <mxCell id="3HOikdQhbSTvWBSmgR4E-9" value="" style="edgeStyle=none;html=1;" parent="1" source="3HOikdQhbSTvWBSmgR4E-6" target="3HOikdQhbSTvWBSmgR4E-8" edge="1">
                    <mxGeometry relative="1" as="geometry"/>
                </mxCell>
                <mxCell id="3HOikdQhbSTvWBSmgR4E-6" value="supp sasdata" style="rounded=0;whiteSpace=wrap;html=1;" parent="1" vertex="1">
                    <mxGeometry x="40" y="320" width="120" height="40" as="geometry"/>
                </mxCell>
                <mxCell id="3HOikdQhbSTvWBSmgR4E-11" value="" style="edgeStyle=none;html=1;" parent="1" source="3HOikdQhbSTvWBSmgR4E-8" target="3HOikdQhbSTvWBSmgR4E-10" edge="1">
                    <mxGeometry relative="1" as="geometry"/>
                </mxCell>
                <mxCell id="3HOikdQhbSTvWBSmgR4E-8" value="supp xpt" style="rounded=0;whiteSpace=wrap;html=1;" parent="1" vertex="1">
                    <mxGeometry x="40" y="400" width="120" height="40" as="geometry"/>
                </mxCell>
                <mxCell id="3HOikdQhbSTvWBSmgR4E-10" value="log" style="rounded=0;whiteSpace=wrap;html=1;" parent="1" vertex="1">
                    <mxGeometry x="40" y="520" width="120" height="40" as="geometry"/>
                </mxCell>
                <mxCell id="3HOikdQhbSTvWBSmgR4E-12" value="SDTM&amp;nbsp;" style="rounded=0;whiteSpace=wrap;html=1;" parent="1" vertex="1">
                    <mxGeometry x="40" y="10" width="240" height="30" as="geometry"/>
                </mxCell>
                <mxCell id="3HOikdQhbSTvWBSmgR4E-25" value="DEV" style="rounded=0;whiteSpace=wrap;html=1;" parent="1" vertex="1">
                    <mxGeometry x="40" y="40" width="120" height="40" as="geometry"/>
                </mxCell>
                <mxCell id="3HOikdQhbSTvWBSmgR4E-26" value="QC" style="rounded=0;whiteSpace=wrap;html=1;" parent="1" vertex="1">
                    <mxGeometry x="160" y="40" width="120" height="40" as="geometry"/>
                </mxCell>
                <mxCell id="3HOikdQhbSTvWBSmgR4E-27" value="" style="edgeStyle=none;html=1;" parent="1" source="3HOikdQhbSTvWBSmgR4E-28" target="3HOikdQhbSTvWBSmgR4E-30" edge="1">
                    <mxGeometry relative="1" as="geometry"/>
                </mxCell>
                <mxCell id="3HOikdQhbSTvWBSmgR4E-28" value="sascode" style="rounded=0;whiteSpace=wrap;html=1;" parent="1" vertex="1">
                    <mxGeometry x="160" y="90" width="120" height="40" as="geometry"/>
                </mxCell>
                <mxCell id="sA1sSCG7zoPp-ghte30F-1" style="edgeStyle=none;html=1;exitX=0.5;exitY=1;exitDx=0;exitDy=0;" edge="1" parent="1" source="3HOikdQhbSTvWBSmgR4E-30" target="3HOikdQhbSTvWBSmgR4E-34">
                    <mxGeometry relative="1" as="geometry"/>
                </mxCell>
                <mxCell id="3HOikdQhbSTvWBSmgR4E-30" value="main sasdata" style="rounded=0;whiteSpace=wrap;html=1;" parent="1" vertex="1">
                    <mxGeometry x="160" y="170" width="120" height="40" as="geometry"/>
                </mxCell>
                <mxCell id="sA1sSCG7zoPp-ghte30F-2" style="edgeStyle=none;html=1;exitX=0.5;exitY=1;exitDx=0;exitDy=0;" edge="1" parent="1" source="3HOikdQhbSTvWBSmgR4E-34" target="3HOikdQhbSTvWBSmgR4E-37">
                    <mxGeometry relative="1" as="geometry"/>
                </mxCell>
                <mxCell id="3HOikdQhbSTvWBSmgR4E-34" value="supp sasdata" style="rounded=0;whiteSpace=wrap;html=1;" parent="1" vertex="1">
                    <mxGeometry x="160" y="320" width="120" height="40" as="geometry"/>
                </mxCell>
                <mxCell id="3HOikdQhbSTvWBSmgR4E-39" value="" style="edgeStyle=none;html=1;" parent="1" source="3HOikdQhbSTvWBSmgR4E-37" target="3HOikdQhbSTvWBSmgR4E-38" edge="1">
                    <mxGeometry relative="1" as="geometry"/>
                </mxCell>
                <mxCell id="3HOikdQhbSTvWBSmgR4E-37" value="qc result" style="rounded=0;whiteSpace=wrap;html=1;" parent="1" vertex="1">
                    <mxGeometry x="160" y="440" width="120" height="40" as="geometry"/>
                </mxCell>
                <mxCell id="3HOikdQhbSTvWBSmgR4E-38" value="log" style="rounded=0;whiteSpace=wrap;html=1;" parent="1" vertex="1">
                    <mxGeometry x="160" y="520" width="120" height="40" as="geometry"/>
                </mxCell>
                <mxCell id="3HOikdQhbSTvWBSmgR4E-69" value="" style="edgeStyle=none;html=1;" parent="1" source="3HOikdQhbSTvWBSmgR4E-70" target="3HOikdQhbSTvWBSmgR4E-72" edge="1">
                    <mxGeometry relative="1" as="geometry"/>
                </mxCell>
                <mxCell id="3HOikdQhbSTvWBSmgR4E-70" value="sascode" style="rounded=0;whiteSpace=wrap;html=1;" parent="1" vertex="1">
                    <mxGeometry x="280" y="90" width="120" height="40" as="geometry"/>
                </mxCell>
                <mxCell id="3HOikdQhbSTvWBSmgR4E-71" value="" style="edgeStyle=none;html=1;" parent="1" source="3HOikdQhbSTvWBSmgR4E-72" target="3HOikdQhbSTvWBSmgR4E-74" edge="1">
                    <mxGeometry relative="1" as="geometry"/>
                </mxCell>
                <mxCell id="3HOikdQhbSTvWBSmgR4E-72" value="sasdata" style="rounded=0;whiteSpace=wrap;html=1;" parent="1" vertex="1">
                    <mxGeometry x="280" y="170" width="120" height="40" as="geometry"/>
                </mxCell>
                <mxCell id="3HOikdQhbSTvWBSmgR4E-96" style="edgeStyle=none;html=1;exitX=0.5;exitY=1;exitDx=0;exitDy=0;entryX=0.5;entryY=0;entryDx=0;entryDy=0;" parent="1" source="3HOikdQhbSTvWBSmgR4E-74" target="3HOikdQhbSTvWBSmgR4E-79" edge="1">
                    <mxGeometry relative="1" as="geometry"/>
                </mxCell>
                <mxCell id="3HOikdQhbSTvWBSmgR4E-74" value="xpt" style="rounded=0;whiteSpace=wrap;html=1;" parent="1" vertex="1">
                    <mxGeometry x="280" y="250" width="120" height="40" as="geometry"/>
                </mxCell>
                <mxCell id="3HOikdQhbSTvWBSmgR4E-79" value="log" style="rounded=0;whiteSpace=wrap;html=1;" parent="1" vertex="1">
                    <mxGeometry x="280" y="520" width="120" height="40" as="geometry"/>
                </mxCell>
                <mxCell id="3HOikdQhbSTvWBSmgR4E-80" value="ADaM" style="rounded=0;whiteSpace=wrap;html=1;" parent="1" vertex="1">
                    <mxGeometry x="280" y="10" width="240" height="30" as="geometry"/>
                </mxCell>
                <mxCell id="3HOikdQhbSTvWBSmgR4E-81" value="DEV" style="rounded=0;whiteSpace=wrap;html=1;" parent="1" vertex="1">
                    <mxGeometry x="280" y="40" width="120" height="40" as="geometry"/>
                </mxCell>
                <mxCell id="3HOikdQhbSTvWBSmgR4E-82" value="QC" style="rounded=0;whiteSpace=wrap;html=1;" parent="1" vertex="1">
                    <mxGeometry x="400" y="40" width="120" height="40" as="geometry"/>
                </mxCell>
                <mxCell id="3HOikdQhbSTvWBSmgR4E-83" value="" style="edgeStyle=none;html=1;" parent="1" source="3HOikdQhbSTvWBSmgR4E-84" target="3HOikdQhbSTvWBSmgR4E-86" edge="1">
                    <mxGeometry relative="1" as="geometry"/>
                </mxCell>
                <mxCell id="3HOikdQhbSTvWBSmgR4E-84" value="sascode" style="rounded=0;whiteSpace=wrap;html=1;" parent="1" vertex="1">
                    <mxGeometry x="400" y="90" width="120" height="40" as="geometry"/>
                </mxCell>
                <mxCell id="sA1sSCG7zoPp-ghte30F-3" style="edgeStyle=none;html=1;exitX=0.5;exitY=1;exitDx=0;exitDy=0;" edge="1" parent="1" source="3HOikdQhbSTvWBSmgR4E-86" target="3HOikdQhbSTvWBSmgR4E-94">
                    <mxGeometry relative="1" as="geometry"/>
                </mxCell>
                <mxCell id="3HOikdQhbSTvWBSmgR4E-86" value="sasdata" style="rounded=0;whiteSpace=wrap;html=1;" parent="1" vertex="1">
                    <mxGeometry x="400" y="170" width="120" height="40" as="geometry"/>
                </mxCell>
                <mxCell id="3HOikdQhbSTvWBSmgR4E-93" value="" style="edgeStyle=none;html=1;" parent="1" source="3HOikdQhbSTvWBSmgR4E-94" target="3HOikdQhbSTvWBSmgR4E-95" edge="1">
                    <mxGeometry relative="1" as="geometry"/>
                </mxCell>
                <mxCell id="3HOikdQhbSTvWBSmgR4E-94" value="qc result" style="rounded=0;whiteSpace=wrap;html=1;" parent="1" vertex="1">
                    <mxGeometry x="400" y="440" width="120" height="40" as="geometry"/>
                </mxCell>
                <mxCell id="3HOikdQhbSTvWBSmgR4E-95" value="log" style="rounded=0;whiteSpace=wrap;html=1;" parent="1" vertex="1">
                    <mxGeometry x="400" y="520" width="120" height="40" as="geometry"/>
                </mxCell>
                <mxCell id="3HOikdQhbSTvWBSmgR4E-98" value="" style="edgeStyle=none;html=1;" parent="1" source="3HOikdQhbSTvWBSmgR4E-99" target="3HOikdQhbSTvWBSmgR4E-101" edge="1">
                    <mxGeometry relative="1" as="geometry"/>
                </mxCell>
                <mxCell id="3HOikdQhbSTvWBSmgR4E-99" value="sascode" style="rounded=0;whiteSpace=wrap;html=1;" parent="1" vertex="1">
                    <mxGeometry x="520" y="90" width="120" height="40" as="geometry"/>
                </mxCell>
                <mxCell id="3HOikdQhbSTvWBSmgR4E-100" value="" style="edgeStyle=none;html=1;" parent="1" source="3HOikdQhbSTvWBSmgR4E-101" target="3HOikdQhbSTvWBSmgR4E-103" edge="1">
                    <mxGeometry relative="1" as="geometry"/>
                </mxCell>
                <mxCell id="3HOikdQhbSTvWBSmgR4E-101" value="sasdata" style="rounded=0;whiteSpace=wrap;html=1;" parent="1" vertex="1">
                    <mxGeometry x="520" y="170" width="120" height="40" as="geometry"/>
                </mxCell>
                <mxCell id="3HOikdQhbSTvWBSmgR4E-102" style="edgeStyle=none;html=1;exitX=0.5;exitY=1;exitDx=0;exitDy=0;entryX=0.5;entryY=0;entryDx=0;entryDy=0;" parent="1" source="3HOikdQhbSTvWBSmgR4E-103" target="3HOikdQhbSTvWBSmgR4E-104" edge="1">
                    <mxGeometry relative="1" as="geometry"/>
                </mxCell>
                <mxCell id="3HOikdQhbSTvWBSmgR4E-103" value="output" style="rounded=0;whiteSpace=wrap;html=1;" parent="1" vertex="1">
                    <mxGeometry x="520" y="250" width="120" height="40" as="geometry"/>
                </mxCell>
                <mxCell id="3HOikdQhbSTvWBSmgR4E-104" value="log" style="rounded=0;whiteSpace=wrap;html=1;" parent="1" vertex="1">
                    <mxGeometry x="520" y="520" width="120" height="40" as="geometry"/>
                </mxCell>
                <mxCell id="3HOikdQhbSTvWBSmgR4E-105" value="TFLs" style="rounded=0;whiteSpace=wrap;html=1;" parent="1" vertex="1">
                    <mxGeometry x="520" y="10" width="240" height="30" as="geometry"/>
                </mxCell>
                <mxCell id="3HOikdQhbSTvWBSmgR4E-106" value="DEV" style="rounded=0;whiteSpace=wrap;html=1;" parent="1" vertex="1">
                    <mxGeometry x="520" y="40" width="120" height="40" as="geometry"/>
                </mxCell>
                <mxCell id="3HOikdQhbSTvWBSmgR4E-107" value="QC" style="rounded=0;whiteSpace=wrap;html=1;" parent="1" vertex="1">
                    <mxGeometry x="640" y="40" width="120" height="40" as="geometry"/>
                </mxCell>
                <mxCell id="3HOikdQhbSTvWBSmgR4E-108" value="" style="edgeStyle=none;html=1;" parent="1" source="3HOikdQhbSTvWBSmgR4E-109" target="3HOikdQhbSTvWBSmgR4E-111" edge="1">
                    <mxGeometry relative="1" as="geometry"/>
                </mxCell>
                <mxCell id="3HOikdQhbSTvWBSmgR4E-109" value="sascode" style="rounded=0;whiteSpace=wrap;html=1;" parent="1" vertex="1">
                    <mxGeometry x="640" y="90" width="120" height="40" as="geometry"/>
                </mxCell>
                <mxCell id="3HOikdQhbSTvWBSmgR4E-117" style="edgeStyle=none;html=1;exitX=0.5;exitY=1;exitDx=0;exitDy=0;" parent="1" source="3HOikdQhbSTvWBSmgR4E-111" target="3HOikdQhbSTvWBSmgR4E-115" edge="1">
                    <mxGeometry relative="1" as="geometry"/>
                </mxCell>
                <mxCell id="3HOikdQhbSTvWBSmgR4E-111" value="sasdata" style="rounded=0;whiteSpace=wrap;html=1;" parent="1" vertex="1">
                    <mxGeometry x="640" y="170" width="120" height="40" as="geometry"/>
                </mxCell>
                <mxCell id="3HOikdQhbSTvWBSmgR4E-114" value="" style="edgeStyle=none;html=1;" parent="1" source="3HOikdQhbSTvWBSmgR4E-115" target="3HOikdQhbSTvWBSmgR4E-116" edge="1">
                    <mxGeometry relative="1" as="geometry"/>
                </mxCell>
                <mxCell id="3HOikdQhbSTvWBSmgR4E-115" value="qc result" style="rounded=0;whiteSpace=wrap;html=1;" parent="1" vertex="1">
                    <mxGeometry x="640" y="440" width="120" height="40" as="geometry"/>
                </mxCell>
                <mxCell id="3HOikdQhbSTvWBSmgR4E-116" value="log" style="rounded=0;whiteSpace=wrap;html=1;" parent="1" vertex="1">
                    <mxGeometry x="640" y="520" width="120" height="40" as="geometry"/>
                </mxCell>
            </root>
        </mxGraphModel>
    </diagram>
    <diagram id="XqZ9PavVoc1rD55L-8Rp" name="Page-1">
        <mxGraphModel dx="721" dy="463" grid="0" gridSize="10" guides="1" tooltips="1" connect="1" arrows="1" fold="1" page="0" pageScale="1" pageWidth="850" pageHeight="1100" math="0" shadow="0">
            <root>
                <mxCell id="0"/>
                <mxCell id="1" parent="0"/>
                <mxCell id="hywFJxfZgF1XUIs8Vgq--32" value="" style="edgeStyle=none;html=1;" parent="1" source="hywFJxfZgF1XUIs8Vgq--30" target="hywFJxfZgF1XUIs8Vgq--31" edge="1">
                    <mxGeometry relative="1" as="geometry"/>
                </mxCell>
                <mxCell id="hywFJxfZgF1XUIs8Vgq--30" value="DEV" style="rounded=0;whiteSpace=wrap;html=1;" parent="1" vertex="1">
                    <mxGeometry x="120" y="40" width="120" height="40" as="geometry"/>
                </mxCell>
                <mxCell id="hywFJxfZgF1XUIs8Vgq--34" value="" style="edgeStyle=none;html=1;fillColor=#f8cecc;gradientColor=#ea6b66;strokeColor=#b85450;" parent="1" source="hywFJxfZgF1XUIs8Vgq--31" target="hywFJxfZgF1XUIs8Vgq--33" edge="1">
                    <mxGeometry relative="1" as="geometry"/>
                </mxCell>
                <mxCell id="hywFJxfZgF1XUIs8Vgq--38" value="" style="edgeStyle=none;html=1;" parent="1" source="hywFJxfZgF1XUIs8Vgq--31" target="hywFJxfZgF1XUIs8Vgq--37" edge="1">
                    <mxGeometry relative="1" as="geometry"/>
                </mxCell>
                <mxCell id="hywFJxfZgF1XUIs8Vgq--31" value="exist(code)" style="rhombus;whiteSpace=wrap;html=1;rounded=0;" parent="1" vertex="1">
                    <mxGeometry x="140" y="120" width="80" height="80" as="geometry"/>
                </mxCell>
                <mxCell id="hywFJxfZgF1XUIs8Vgq--33" value="Building" style="shape=parallelogram;perimeter=parallelogramPerimeter;whiteSpace=wrap;html=1;fixedSize=1;rounded=0;" parent="1" vertex="1">
                    <mxGeometry y="140" width="120" height="40" as="geometry"/>
                </mxCell>
                <mxCell id="hywFJxfZgF1XUIs8Vgq--40" style="edgeStyle=none;html=1;exitX=0;exitY=0.5;exitDx=0;exitDy=0;entryX=1;entryY=0.5;entryDx=0;entryDy=0;fillColor=#f8cecc;gradientColor=#ea6b66;strokeColor=#b85450;" parent="1" source="hywFJxfZgF1XUIs8Vgq--37" target="hywFJxfZgF1XUIs8Vgq--39" edge="1">
                    <mxGeometry relative="1" as="geometry"/>
                </mxCell>
                <mxCell id="hywFJxfZgF1XUIs8Vgq--42" value="" style="edgeStyle=none;html=1;" parent="1" source="hywFJxfZgF1XUIs8Vgq--37" target="hywFJxfZgF1XUIs8Vgq--41" edge="1">
                    <mxGeometry relative="1" as="geometry"/>
                </mxCell>
                <mxCell id="hywFJxfZgF1XUIs8Vgq--37" value="exist(data &amp;amp;&amp;amp; xpt &amp;amp;&amp;amp; suppdata &amp;amp;&amp;amp; suppxpt &amp;amp;&amp;amp; log&lt;br&gt;)" style="rhombus;whiteSpace=wrap;html=1;rounded=0;" parent="1" vertex="1">
                    <mxGeometry x="140" y="240" width="80" height="80" as="geometry"/>
                </mxCell>
                <mxCell id="hywFJxfZgF1XUIs8Vgq--39" value="Building" style="shape=parallelogram;perimeter=parallelogramPerimeter;whiteSpace=wrap;html=1;fixedSize=1;rounded=0;" parent="1" vertex="1">
                    <mxGeometry y="260" width="120" height="40" as="geometry"/>
                </mxCell>
                <mxCell id="hywFJxfZgF1XUIs8Vgq--44" style="edgeStyle=none;html=1;exitX=0;exitY=0.5;exitDx=0;exitDy=0;entryX=1;entryY=0.5;entryDx=0;entryDy=0;fillColor=#f8cecc;gradientColor=#ea6b66;strokeColor=#b85450;" parent="1" source="hywFJxfZgF1XUIs8Vgq--41" target="hywFJxfZgF1XUIs8Vgq--43" edge="1">
                    <mxGeometry relative="1" as="geometry"/>
                </mxCell>
                <mxCell id="hywFJxfZgF1XUIs8Vgq--46" value="" style="edgeStyle=none;html=1;" parent="1" source="hywFJxfZgF1XUIs8Vgq--41" target="hywFJxfZgF1XUIs8Vgq--45" edge="1">
                    <mxGeometry relative="1" as="geometry"/>
                </mxCell>
                <mxCell id="hywFJxfZgF1XUIs8Vgq--41" value="code &amp;lt; (data | xpt | suppdata | suppxpt | log)" style="rhombus;whiteSpace=wrap;html=1;rounded=0;" parent="1" vertex="1">
                    <mxGeometry x="140" y="360" width="80" height="80" as="geometry"/>
                </mxCell>
                <mxCell id="hywFJxfZgF1XUIs8Vgq--43" value="Building" style="shape=parallelogram;perimeter=parallelogramPerimeter;whiteSpace=wrap;html=1;fixedSize=1;rounded=0;" parent="1" vertex="1">
                    <mxGeometry y="380" width="120" height="40" as="geometry"/>
                </mxCell>
                <mxCell id="hywFJxfZgF1XUIs8Vgq--52" style="edgeStyle=none;html=1;exitX=0;exitY=0.5;exitDx=0;exitDy=0;fillColor=#f8cecc;gradientColor=#ea6b66;strokeColor=#b85450;" parent="1" source="hywFJxfZgF1XUIs8Vgq--45" target="hywFJxfZgF1XUIs8Vgq--51" edge="1">
                    <mxGeometry relative="1" as="geometry"/>
                </mxCell>
                <mxCell id="hywFJxfZgF1XUIs8Vgq--55" value="" style="edgeStyle=none;html=1;" parent="1" source="hywFJxfZgF1XUIs8Vgq--45" target="hywFJxfZgF1XUIs8Vgq--54" edge="1">
                    <mxGeometry relative="1" as="geometry"/>
                </mxCell>
                <mxCell id="hywFJxfZgF1XUIs8Vgq--45" value="data &amp;lt; xpt &amp;lt; suppdata &amp;lt; suppxpt &amp;lt; log" style="rhombus;whiteSpace=wrap;html=1;rounded=0;" parent="1" vertex="1">
                    <mxGeometry x="140" y="480" width="80" height="80" as="geometry"/>
                </mxCell>
                <mxCell id="hywFJxfZgF1XUIs8Vgq--51" value="Unexpected" style="shape=parallelogram;perimeter=parallelogramPerimeter;whiteSpace=wrap;html=1;fixedSize=1;rounded=0;" parent="1" vertex="1">
                    <mxGeometry y="500" width="120" height="40" as="geometry"/>
                </mxCell>
                <mxCell id="hywFJxfZgF1XUIs8Vgq--57" style="edgeStyle=none;html=1;exitX=0;exitY=0.5;exitDx=0;exitDy=0;entryX=1;entryY=0.5;entryDx=0;entryDy=0;fillColor=#f8cecc;gradientColor=#ea6b66;strokeColor=#b85450;" parent="1" source="hywFJxfZgF1XUIs8Vgq--54" target="hywFJxfZgF1XUIs8Vgq--56" edge="1">
                    <mxGeometry relative="1" as="geometry"/>
                </mxCell>
                <mxCell id="hywFJxfZgF1XUIs8Vgq--59" style="edgeStyle=none;html=1;exitX=0.5;exitY=1;exitDx=0;exitDy=0;" parent="1" source="hywFJxfZgF1XUIs8Vgq--54" target="hywFJxfZgF1XUIs8Vgq--58" edge="1">
                    <mxGeometry relative="1" as="geometry"/>
                </mxCell>
                <mxCell id="hywFJxfZgF1XUIs8Vgq--54" value="raw &amp;lt; (data | xpt | suppdata | suppxpt | log)" style="rhombus;whiteSpace=wrap;html=1;rounded=0;" parent="1" vertex="1">
                    <mxGeometry x="140" y="600" width="80" height="80" as="geometry"/>
                </mxCell>
                <mxCell id="hywFJxfZgF1XUIs8Vgq--56" value="Changed" style="shape=parallelogram;perimeter=parallelogramPerimeter;whiteSpace=wrap;html=1;fixedSize=1;rounded=0;" parent="1" vertex="1">
                    <mxGeometry y="620" width="120" height="40" as="geometry"/>
                </mxCell>
                <mxCell id="hywFJxfZgF1XUIs8Vgq--58" value="Ready" style="shape=parallelogram;perimeter=parallelogramPerimeter;whiteSpace=wrap;html=1;fixedSize=1;rounded=0;" parent="1" vertex="1">
                    <mxGeometry x="120" y="720" width="120" height="40" as="geometry"/>
                </mxCell>
                <mxCell id="hywFJxfZgF1XUIs8Vgq--60" value="" style="edgeStyle=none;html=1;" parent="1" source="hywFJxfZgF1XUIs8Vgq--61" target="hywFJxfZgF1XUIs8Vgq--64" edge="1">
                    <mxGeometry relative="1" as="geometry"/>
                </mxCell>
                <mxCell id="hywFJxfZgF1XUIs8Vgq--61" value="DEV" style="rounded=0;whiteSpace=wrap;html=1;" parent="1" vertex="1">
                    <mxGeometry x="585" y="40" width="120" height="40" as="geometry"/>
                </mxCell>
                <mxCell id="hywFJxfZgF1XUIs8Vgq--62" value="" style="edgeStyle=none;html=1;fillColor=#f8cecc;gradientColor=#ea6b66;strokeColor=#b85450;" parent="1" source="hywFJxfZgF1XUIs8Vgq--64" target="hywFJxfZgF1XUIs8Vgq--65" edge="1">
                    <mxGeometry relative="1" as="geometry"/>
                </mxCell>
                <mxCell id="hywFJxfZgF1XUIs8Vgq--63" value="" style="edgeStyle=none;html=1;" parent="1" source="hywFJxfZgF1XUIs8Vgq--64" target="hywFJxfZgF1XUIs8Vgq--68" edge="1">
                    <mxGeometry relative="1" as="geometry"/>
                </mxCell>
                <mxCell id="hywFJxfZgF1XUIs8Vgq--64" value="exist(code)" style="rhombus;whiteSpace=wrap;html=1;rounded=0;" parent="1" vertex="1">
                    <mxGeometry x="605" y="120" width="80" height="80" as="geometry"/>
                </mxCell>
                <mxCell id="hywFJxfZgF1XUIs8Vgq--65" value="Building" style="shape=parallelogram;perimeter=parallelogramPerimeter;whiteSpace=wrap;html=1;fixedSize=1;rounded=0;" parent="1" vertex="1">
                    <mxGeometry x="465" y="140" width="120" height="40" as="geometry"/>
                </mxCell>
                <mxCell id="hywFJxfZgF1XUIs8Vgq--66" style="edgeStyle=none;html=1;exitX=0;exitY=0.5;exitDx=0;exitDy=0;entryX=1;entryY=0.5;entryDx=0;entryDy=0;fillColor=#f8cecc;gradientColor=#ea6b66;strokeColor=#b85450;" parent="1" source="hywFJxfZgF1XUIs8Vgq--68" target="hywFJxfZgF1XUIs8Vgq--69" edge="1">
                    <mxGeometry relative="1" as="geometry"/>
                </mxCell>
                <mxCell id="hywFJxfZgF1XUIs8Vgq--67" value="" style="edgeStyle=none;html=1;" parent="1" source="hywFJxfZgF1XUIs8Vgq--68" target="hywFJxfZgF1XUIs8Vgq--72" edge="1">
                    <mxGeometry relative="1" as="geometry"/>
                </mxCell>
                <mxCell id="hywFJxfZgF1XUIs8Vgq--68" value="exist(data &amp;amp;&amp;amp; xpt &amp;amp;&amp;amp; log&lt;br&gt;)" style="rhombus;whiteSpace=wrap;html=1;rounded=0;" parent="1" vertex="1">
                    <mxGeometry x="605" y="240" width="80" height="80" as="geometry"/>
                </mxCell>
                <mxCell id="hywFJxfZgF1XUIs8Vgq--69" value="Building" style="shape=parallelogram;perimeter=parallelogramPerimeter;whiteSpace=wrap;html=1;fixedSize=1;rounded=0;" parent="1" vertex="1">
                    <mxGeometry x="465" y="260" width="120" height="40" as="geometry"/>
                </mxCell>
                <mxCell id="hywFJxfZgF1XUIs8Vgq--70" style="edgeStyle=none;html=1;exitX=0;exitY=0.5;exitDx=0;exitDy=0;entryX=1;entryY=0.5;entryDx=0;entryDy=0;fillColor=#f8cecc;gradientColor=#ea6b66;strokeColor=#b85450;" parent="1" source="hywFJxfZgF1XUIs8Vgq--72" target="hywFJxfZgF1XUIs8Vgq--73" edge="1">
                    <mxGeometry relative="1" as="geometry"/>
                </mxCell>
                <mxCell id="hywFJxfZgF1XUIs8Vgq--71" value="" style="edgeStyle=none;html=1;" parent="1" source="hywFJxfZgF1XUIs8Vgq--72" target="hywFJxfZgF1XUIs8Vgq--76" edge="1">
                    <mxGeometry relative="1" as="geometry"/>
                </mxCell>
                <mxCell id="hywFJxfZgF1XUIs8Vgq--72" value="code &amp;gt; (data | xpt | log)" style="rhombus;whiteSpace=wrap;html=1;rounded=0;" parent="1" vertex="1">
                    <mxGeometry x="605" y="360" width="80" height="80" as="geometry"/>
                </mxCell>
                <mxCell id="hywFJxfZgF1XUIs8Vgq--73" value="Building" style="shape=parallelogram;perimeter=parallelogramPerimeter;whiteSpace=wrap;html=1;fixedSize=1;rounded=0;" parent="1" vertex="1">
                    <mxGeometry x="465" y="380" width="120" height="40" as="geometry"/>
                </mxCell>
                <mxCell id="hywFJxfZgF1XUIs8Vgq--74" style="edgeStyle=none;html=1;exitX=0;exitY=0.5;exitDx=0;exitDy=0;fillColor=#f8cecc;gradientColor=#ea6b66;strokeColor=#b85450;" parent="1" source="hywFJxfZgF1XUIs8Vgq--76" target="hywFJxfZgF1XUIs8Vgq--77" edge="1">
                    <mxGeometry relative="1" as="geometry"/>
                </mxCell>
                <mxCell id="hywFJxfZgF1XUIs8Vgq--75" value="" style="edgeStyle=none;html=1;" parent="1" source="hywFJxfZgF1XUIs8Vgq--76" target="hywFJxfZgF1XUIs8Vgq--80" edge="1">
                    <mxGeometry relative="1" as="geometry"/>
                </mxCell>
                <mxCell id="hywFJxfZgF1XUIs8Vgq--76" value="data &amp;lt; xpt &amp;lt; log" style="rhombus;whiteSpace=wrap;html=1;rounded=0;" parent="1" vertex="1">
                    <mxGeometry x="605" y="480" width="80" height="80" as="geometry"/>
                </mxCell>
                <mxCell id="hywFJxfZgF1XUIs8Vgq--77" value="Unexpected" style="shape=parallelogram;perimeter=parallelogramPerimeter;whiteSpace=wrap;html=1;fixedSize=1;rounded=0;" parent="1" vertex="1">
                    <mxGeometry x="465" y="500" width="120" height="40" as="geometry"/>
                </mxCell>
                <mxCell id="hywFJxfZgF1XUIs8Vgq--78" style="edgeStyle=none;html=1;exitX=0;exitY=0.5;exitDx=0;exitDy=0;entryX=1;entryY=0.5;entryDx=0;entryDy=0;fillColor=#f8cecc;gradientColor=#ea6b66;strokeColor=#b85450;" parent="1" source="hywFJxfZgF1XUIs8Vgq--80" target="hywFJxfZgF1XUIs8Vgq--81" edge="1">
                    <mxGeometry relative="1" as="geometry"/>
                </mxCell>
                <mxCell id="hywFJxfZgF1XUIs8Vgq--79" style="edgeStyle=none;html=1;exitX=0.5;exitY=1;exitDx=0;exitDy=0;" parent="1" source="hywFJxfZgF1XUIs8Vgq--80" target="hywFJxfZgF1XUIs8Vgq--82" edge="1">
                    <mxGeometry relative="1" as="geometry"/>
                </mxCell>
                <mxCell id="hywFJxfZgF1XUIs8Vgq--80" value="sdtm &amp;gt; (data | xpt | log)" style="rhombus;whiteSpace=wrap;html=1;rounded=0;" parent="1" vertex="1">
                    <mxGeometry x="605" y="600" width="80" height="80" as="geometry"/>
                </mxCell>
                <mxCell id="hywFJxfZgF1XUIs8Vgq--81" value="Changed" style="shape=parallelogram;perimeter=parallelogramPerimeter;whiteSpace=wrap;html=1;fixedSize=1;rounded=0;" parent="1" vertex="1">
                    <mxGeometry x="465" y="620" width="120" height="40" as="geometry"/>
                </mxCell>
                <mxCell id="hywFJxfZgF1XUIs8Vgq--82" value="Ready" style="shape=parallelogram;perimeter=parallelogramPerimeter;whiteSpace=wrap;html=1;fixedSize=1;rounded=0;" parent="1" vertex="1">
                    <mxGeometry x="585" y="720" width="120" height="40" as="geometry"/>
                </mxCell>
                <mxCell id="hywFJxfZgF1XUIs8Vgq--93" style="edgeStyle=none;html=1;exitX=0.5;exitY=1;exitDx=0;exitDy=0;entryX=0.5;entryY=0;entryDx=0;entryDy=0;" parent="1" source="hywFJxfZgF1XUIs8Vgq--83" target="hywFJxfZgF1XUIs8Vgq--85" edge="1">
                    <mxGeometry relative="1" as="geometry"/>
                </mxCell>
                <mxCell id="hywFJxfZgF1XUIs8Vgq--83" value="QC" style="rounded=0;whiteSpace=wrap;html=1;" parent="1" vertex="1">
                    <mxGeometry x="240" y="40" width="120" height="40" as="geometry"/>
                </mxCell>
                <mxCell id="hywFJxfZgF1XUIs8Vgq--84" value="" style="edgeStyle=none;html=1;" parent="1" source="hywFJxfZgF1XUIs8Vgq--85" target="hywFJxfZgF1XUIs8Vgq--87" edge="1">
                    <mxGeometry relative="1" as="geometry"/>
                </mxCell>
                <mxCell id="hywFJxfZgF1XUIs8Vgq--96" style="edgeStyle=none;html=1;exitX=1;exitY=0.5;exitDx=0;exitDy=0;entryX=0;entryY=0.5;entryDx=0;entryDy=0;fillColor=#f8cecc;gradientColor=#ea6b66;strokeColor=#b85450;" parent="1" source="hywFJxfZgF1XUIs8Vgq--85" target="hywFJxfZgF1XUIs8Vgq--95" edge="1">
                    <mxGeometry relative="1" as="geometry"/>
                </mxCell>
                <mxCell id="hywFJxfZgF1XUIs8Vgq--85" value="exist(code)" style="rhombus;whiteSpace=wrap;html=1;rounded=0;" parent="1" vertex="1">
                    <mxGeometry x="260" y="120" width="80" height="80" as="geometry"/>
                </mxCell>
                <mxCell id="hywFJxfZgF1XUIs8Vgq--86" value="" style="edgeStyle=none;html=1;" parent="1" source="hywFJxfZgF1XUIs8Vgq--87" target="hywFJxfZgF1XUIs8Vgq--89" edge="1">
                    <mxGeometry relative="1" as="geometry"/>
                </mxCell>
                <mxCell id="hywFJxfZgF1XUIs8Vgq--98" style="edgeStyle=none;html=1;exitX=1;exitY=0.5;exitDx=0;exitDy=0;fillColor=#f8cecc;gradientColor=#ea6b66;strokeColor=#b85450;" parent="1" source="hywFJxfZgF1XUIs8Vgq--87" target="hywFJxfZgF1XUIs8Vgq--97" edge="1">
                    <mxGeometry relative="1" as="geometry"/>
                </mxCell>
                <mxCell id="hywFJxfZgF1XUIs8Vgq--87" value="code &amp;lt; (data | suppdata | log |qc_ results&lt;br&gt;)" style="rhombus;whiteSpace=wrap;html=1;rounded=0;" parent="1" vertex="1">
                    <mxGeometry x="260" y="240" width="80" height="80" as="geometry"/>
                </mxCell>
                <mxCell id="hywFJxfZgF1XUIs8Vgq--88" value="" style="edgeStyle=none;html=1;" parent="1" source="hywFJxfZgF1XUIs8Vgq--89" target="hywFJxfZgF1XUIs8Vgq--91" edge="1">
                    <mxGeometry relative="1" as="geometry"/>
                </mxCell>
                <mxCell id="hywFJxfZgF1XUIs8Vgq--100" style="edgeStyle=none;html=1;exitX=1;exitY=0.5;exitDx=0;exitDy=0;entryX=0;entryY=0.5;entryDx=0;entryDy=0;fillColor=#f8cecc;gradientColor=#ea6b66;strokeColor=#b85450;" parent="1" source="hywFJxfZgF1XUIs8Vgq--89" target="hywFJxfZgF1XUIs8Vgq--99" edge="1">
                    <mxGeometry relative="1" as="geometry"/>
                </mxCell>
                <mxCell id="hywFJxfZgF1XUIs8Vgq--89" value="exist(data &amp;amp;&amp;amp; suppdata &amp;amp;&amp;amp; log &amp;amp;&amp;amp; qc_ results&lt;br&gt;)" style="rhombus;whiteSpace=wrap;html=1;rounded=0;" parent="1" vertex="1">
                    <mxGeometry x="260" y="360" width="80" height="80" as="geometry"/>
                </mxCell>
                <mxCell id="hywFJxfZgF1XUIs8Vgq--90" value="" style="edgeStyle=none;html=1;" parent="1" source="hywFJxfZgF1XUIs8Vgq--91" target="hywFJxfZgF1XUIs8Vgq--92" edge="1">
                    <mxGeometry relative="1" as="geometry"/>
                </mxCell>
                <mxCell id="hywFJxfZgF1XUIs8Vgq--102" style="edgeStyle=none;html=1;exitX=1;exitY=0.5;exitDx=0;exitDy=0;entryX=0;entryY=0.5;entryDx=0;entryDy=0;fillColor=#f8cecc;gradientColor=#ea6b66;strokeColor=#b85450;" parent="1" source="hywFJxfZgF1XUIs8Vgq--91" target="hywFJxfZgF1XUIs8Vgq--101" edge="1">
                    <mxGeometry relative="1" as="geometry"/>
                </mxCell>
                <mxCell id="hywFJxfZgF1XUIs8Vgq--91" value="data &amp;lt; suppdata &amp;lt;qc_ results &amp;lt;&lt;br&gt;log" style="rhombus;whiteSpace=wrap;html=1;rounded=0;" parent="1" vertex="1">
                    <mxGeometry x="260" y="480" width="80" height="80" as="geometry"/>
                </mxCell>
                <mxCell id="hywFJxfZgF1XUIs8Vgq--104" style="edgeStyle=none;html=1;exitX=1;exitY=0.5;exitDx=0;exitDy=0;entryX=0;entryY=0.5;entryDx=0;entryDy=0;fillColor=#f8cecc;gradientColor=#ea6b66;strokeColor=#b85450;" parent="1" source="hywFJxfZgF1XUIs8Vgq--92" target="hywFJxfZgF1XUIs8Vgq--103" edge="1">
                    <mxGeometry relative="1" as="geometry"/>
                </mxCell>
                <mxCell id="hywFJxfZgF1XUIs8Vgq--106" value="" style="edgeStyle=none;html=1;" parent="1" source="hywFJxfZgF1XUIs8Vgq--92" target="hywFJxfZgF1XUIs8Vgq--105" edge="1">
                    <mxGeometry relative="1" as="geometry"/>
                </mxCell>
                <mxCell id="hywFJxfZgF1XUIs8Vgq--92" value="raw &amp;lt; (data | suppdata | qc_ results&lt;br&gt;&amp;nbsp;log)" style="rhombus;whiteSpace=wrap;html=1;rounded=0;" parent="1" vertex="1">
                    <mxGeometry x="260" y="600" width="80" height="80" as="geometry"/>
                </mxCell>
                <mxCell id="hywFJxfZgF1XUIs8Vgq--94" value="SDTM" style="rounded=0;whiteSpace=wrap;html=1;" parent="1" vertex="1">
                    <mxGeometry x="120" width="240" height="40" as="geometry"/>
                </mxCell>
                <mxCell id="hywFJxfZgF1XUIs8Vgq--95" value="Building" style="shape=parallelogram;perimeter=parallelogramPerimeter;whiteSpace=wrap;html=1;fixedSize=1;rounded=0;" parent="1" vertex="1">
                    <mxGeometry x="360" y="140" width="120" height="40" as="geometry"/>
                </mxCell>
                <mxCell id="hywFJxfZgF1XUIs8Vgq--97" value="Building" style="shape=parallelogram;perimeter=parallelogramPerimeter;whiteSpace=wrap;html=1;fixedSize=1;rounded=0;" parent="1" vertex="1">
                    <mxGeometry x="360" y="260" width="120" height="40" as="geometry"/>
                </mxCell>
                <mxCell id="hywFJxfZgF1XUIs8Vgq--99" value="Building" style="shape=parallelogram;perimeter=parallelogramPerimeter;whiteSpace=wrap;html=1;fixedSize=1;rounded=0;" parent="1" vertex="1">
                    <mxGeometry x="360" y="380" width="120" height="40" as="geometry"/>
                </mxCell>
                <mxCell id="hywFJxfZgF1XUIs8Vgq--101" value="Unexpected" style="shape=parallelogram;perimeter=parallelogramPerimeter;whiteSpace=wrap;html=1;fixedSize=1;rounded=0;" parent="1" vertex="1">
                    <mxGeometry x="360" y="500" width="120" height="40" as="geometry"/>
                </mxCell>
                <mxCell id="hywFJxfZgF1XUIs8Vgq--103" value="Changed" style="shape=parallelogram;perimeter=parallelogramPerimeter;whiteSpace=wrap;html=1;fixedSize=1;rounded=0;" parent="1" vertex="1">
                    <mxGeometry x="360" y="620" width="120" height="40" as="geometry"/>
                </mxCell>
                <mxCell id="hywFJxfZgF1XUIs8Vgq--108" style="edgeStyle=none;html=1;exitX=1;exitY=0.5;exitDx=0;exitDy=0;fillColor=#f8cecc;gradientColor=#ea6b66;strokeColor=#b85450;" parent="1" source="hywFJxfZgF1XUIs8Vgq--105" target="hywFJxfZgF1XUIs8Vgq--107" edge="1">
                    <mxGeometry relative="1" as="geometry"/>
                </mxCell>
                <mxCell id="hywFJxfZgF1XUIs8Vgq--110" style="edgeStyle=none;html=1;exitX=0.5;exitY=1;exitDx=0;exitDy=0;" parent="1" source="hywFJxfZgF1XUIs8Vgq--105" target="hywFJxfZgF1XUIs8Vgq--109" edge="1">
                    <mxGeometry relative="1" as="geometry"/>
                </mxCell>
                <mxCell id="hywFJxfZgF1XUIs8Vgq--105" value="isClean(qc_result)" style="rhombus;whiteSpace=wrap;html=1;rounded=0;" parent="1" vertex="1">
                    <mxGeometry x="260" y="720" width="80" height="80" as="geometry"/>
                </mxCell>
                <mxCell id="hywFJxfZgF1XUIs8Vgq--107" value="NotMatch" style="shape=parallelogram;perimeter=parallelogramPerimeter;whiteSpace=wrap;html=1;fixedSize=1;rounded=0;" parent="1" vertex="1">
                    <mxGeometry x="360" y="740" width="120" height="40" as="geometry"/>
                </mxCell>
                <mxCell id="hywFJxfZgF1XUIs8Vgq--109" value="Pass" style="shape=parallelogram;perimeter=parallelogramPerimeter;whiteSpace=wrap;html=1;fixedSize=1;rounded=0;" parent="1" vertex="1">
                    <mxGeometry x="240" y="840" width="120" height="40" as="geometry"/>
                </mxCell>
                <mxCell id="hywFJxfZgF1XUIs8Vgq--111" style="edgeStyle=none;html=1;exitX=0.5;exitY=1;exitDx=0;exitDy=0;entryX=0.5;entryY=0;entryDx=0;entryDy=0;" parent="1" source="hywFJxfZgF1XUIs8Vgq--112" target="hywFJxfZgF1XUIs8Vgq--115" edge="1">
                    <mxGeometry relative="1" as="geometry"/>
                </mxCell>
                <mxCell id="hywFJxfZgF1XUIs8Vgq--112" value="QC" style="rounded=0;whiteSpace=wrap;html=1;" parent="1" vertex="1">
                    <mxGeometry x="705" y="40" width="120" height="40" as="geometry"/>
                </mxCell>
                <mxCell id="hywFJxfZgF1XUIs8Vgq--113" value="" style="edgeStyle=none;html=1;" parent="1" source="hywFJxfZgF1XUIs8Vgq--115" target="hywFJxfZgF1XUIs8Vgq--118" edge="1">
                    <mxGeometry relative="1" as="geometry"/>
                </mxCell>
                <mxCell id="hywFJxfZgF1XUIs8Vgq--114" style="edgeStyle=none;html=1;exitX=1;exitY=0.5;exitDx=0;exitDy=0;entryX=0;entryY=0.5;entryDx=0;entryDy=0;fillColor=#f8cecc;gradientColor=#ea6b66;strokeColor=#b85450;" parent="1" source="hywFJxfZgF1XUIs8Vgq--115" target="hywFJxfZgF1XUIs8Vgq--128" edge="1">
                    <mxGeometry relative="1" as="geometry"/>
                </mxCell>
                <mxCell id="hywFJxfZgF1XUIs8Vgq--115" value="exist(code)" style="rhombus;whiteSpace=wrap;html=1;rounded=0;" parent="1" vertex="1">
                    <mxGeometry x="725" y="120" width="80" height="80" as="geometry"/>
                </mxCell>
                <mxCell id="hywFJxfZgF1XUIs8Vgq--116" value="" style="edgeStyle=none;html=1;" parent="1" source="hywFJxfZgF1XUIs8Vgq--118" target="hywFJxfZgF1XUIs8Vgq--121" edge="1">
                    <mxGeometry relative="1" as="geometry"/>
                </mxCell>
                <mxCell id="hywFJxfZgF1XUIs8Vgq--117" style="edgeStyle=none;html=1;exitX=1;exitY=0.5;exitDx=0;exitDy=0;fillColor=#f8cecc;gradientColor=#ea6b66;strokeColor=#b85450;" parent="1" source="hywFJxfZgF1XUIs8Vgq--118" target="hywFJxfZgF1XUIs8Vgq--129" edge="1">
                    <mxGeometry relative="1" as="geometry"/>
                </mxCell>
                <mxCell id="hywFJxfZgF1XUIs8Vgq--118" value="code &amp;lt; (data | log |qc_ results&lt;br&gt;)" style="rhombus;whiteSpace=wrap;html=1;rounded=0;" parent="1" vertex="1">
                    <mxGeometry x="725" y="240" width="80" height="80" as="geometry"/>
                </mxCell>
                <mxCell id="hywFJxfZgF1XUIs8Vgq--119" value="" style="edgeStyle=none;html=1;" parent="1" source="hywFJxfZgF1XUIs8Vgq--121" target="hywFJxfZgF1XUIs8Vgq--124" edge="1">
                    <mxGeometry relative="1" as="geometry"/>
                </mxCell>
                <mxCell id="hywFJxfZgF1XUIs8Vgq--120" style="edgeStyle=none;html=1;exitX=1;exitY=0.5;exitDx=0;exitDy=0;entryX=0;entryY=0.5;entryDx=0;entryDy=0;fillColor=#f8cecc;gradientColor=#ea6b66;strokeColor=#b85450;" parent="1" source="hywFJxfZgF1XUIs8Vgq--121" target="hywFJxfZgF1XUIs8Vgq--130" edge="1">
                    <mxGeometry relative="1" as="geometry"/>
                </mxCell>
                <mxCell id="hywFJxfZgF1XUIs8Vgq--121" value="exist(data &amp;amp;&amp;amp; log &amp;amp;&amp;amp; qc_ results&lt;br&gt;)" style="rhombus;whiteSpace=wrap;html=1;rounded=0;" parent="1" vertex="1">
                    <mxGeometry x="725" y="360" width="80" height="80" as="geometry"/>
                </mxCell>
                <mxCell id="hywFJxfZgF1XUIs8Vgq--122" value="" style="edgeStyle=none;html=1;" parent="1" source="hywFJxfZgF1XUIs8Vgq--124" target="hywFJxfZgF1XUIs8Vgq--127" edge="1">
                    <mxGeometry relative="1" as="geometry"/>
                </mxCell>
                <mxCell id="hywFJxfZgF1XUIs8Vgq--123" style="edgeStyle=none;html=1;exitX=1;exitY=0.5;exitDx=0;exitDy=0;entryX=0;entryY=0.5;entryDx=0;entryDy=0;fillColor=#f8cecc;gradientColor=#ea6b66;strokeColor=#b85450;" parent="1" source="hywFJxfZgF1XUIs8Vgq--124" target="hywFJxfZgF1XUIs8Vgq--131" edge="1">
                    <mxGeometry relative="1" as="geometry"/>
                </mxCell>
                <mxCell id="hywFJxfZgF1XUIs8Vgq--124" value="data &amp;lt; qc_ results &amp;lt;&lt;br&gt;log" style="rhombus;whiteSpace=wrap;html=1;rounded=0;" parent="1" vertex="1">
                    <mxGeometry x="725" y="480" width="80" height="80" as="geometry"/>
                </mxCell>
                <mxCell id="hywFJxfZgF1XUIs8Vgq--125" style="edgeStyle=none;html=1;exitX=1;exitY=0.5;exitDx=0;exitDy=0;entryX=0;entryY=0.5;entryDx=0;entryDy=0;fillColor=#f8cecc;gradientColor=#ea6b66;strokeColor=#b85450;" parent="1" source="hywFJxfZgF1XUIs8Vgq--127" target="hywFJxfZgF1XUIs8Vgq--132" edge="1">
                    <mxGeometry relative="1" as="geometry"/>
                </mxCell>
                <mxCell id="hywFJxfZgF1XUIs8Vgq--126" value="" style="edgeStyle=none;html=1;" parent="1" source="hywFJxfZgF1XUIs8Vgq--127" target="hywFJxfZgF1XUIs8Vgq--135" edge="1">
                    <mxGeometry relative="1" as="geometry"/>
                </mxCell>
                <mxCell id="hywFJxfZgF1XUIs8Vgq--127" value="sdtm &amp;lt; (data | qc_ results&lt;br&gt;&amp;nbsp;log)" style="rhombus;whiteSpace=wrap;html=1;rounded=0;" parent="1" vertex="1">
                    <mxGeometry x="725" y="600" width="80" height="80" as="geometry"/>
                </mxCell>
                <mxCell id="hywFJxfZgF1XUIs8Vgq--128" value="Building" style="shape=parallelogram;perimeter=parallelogramPerimeter;whiteSpace=wrap;html=1;fixedSize=1;rounded=0;" parent="1" vertex="1">
                    <mxGeometry x="825" y="140" width="120" height="40" as="geometry"/>
                </mxCell>
                <mxCell id="hywFJxfZgF1XUIs8Vgq--129" value="Building" style="shape=parallelogram;perimeter=parallelogramPerimeter;whiteSpace=wrap;html=1;fixedSize=1;rounded=0;" parent="1" vertex="1">
                    <mxGeometry x="825" y="260" width="120" height="40" as="geometry"/>
                </mxCell>
                <mxCell id="hywFJxfZgF1XUIs8Vgq--130" value="Building" style="shape=parallelogram;perimeter=parallelogramPerimeter;whiteSpace=wrap;html=1;fixedSize=1;rounded=0;" parent="1" vertex="1">
                    <mxGeometry x="825" y="380" width="120" height="40" as="geometry"/>
                </mxCell>
                <mxCell id="hywFJxfZgF1XUIs8Vgq--131" value="Unexpected" style="shape=parallelogram;perimeter=parallelogramPerimeter;whiteSpace=wrap;html=1;fixedSize=1;rounded=0;" parent="1" vertex="1">
                    <mxGeometry x="825" y="500" width="120" height="40" as="geometry"/>
                </mxCell>
                <mxCell id="hywFJxfZgF1XUIs8Vgq--132" value="Changed" style="shape=parallelogram;perimeter=parallelogramPerimeter;whiteSpace=wrap;html=1;fixedSize=1;rounded=0;" parent="1" vertex="1">
                    <mxGeometry x="825" y="620" width="120" height="40" as="geometry"/>
                </mxCell>
                <mxCell id="hywFJxfZgF1XUIs8Vgq--133" style="edgeStyle=none;html=1;exitX=1;exitY=0.5;exitDx=0;exitDy=0;fillColor=#f8cecc;gradientColor=#ea6b66;strokeColor=#b85450;" parent="1" source="hywFJxfZgF1XUIs8Vgq--135" target="hywFJxfZgF1XUIs8Vgq--136" edge="1">
                    <mxGeometry relative="1" as="geometry"/>
                </mxCell>
                <mxCell id="hywFJxfZgF1XUIs8Vgq--134" style="edgeStyle=none;html=1;exitX=0.5;exitY=1;exitDx=0;exitDy=0;" parent="1" source="hywFJxfZgF1XUIs8Vgq--135" target="hywFJxfZgF1XUIs8Vgq--137" edge="1">
                    <mxGeometry relative="1" as="geometry"/>
                </mxCell>
                <mxCell id="hywFJxfZgF1XUIs8Vgq--135" value="isClean(qc_result)" style="rhombus;whiteSpace=wrap;html=1;rounded=0;" parent="1" vertex="1">
                    <mxGeometry x="725" y="720" width="80" height="80" as="geometry"/>
                </mxCell>
                <mxCell id="hywFJxfZgF1XUIs8Vgq--136" value="NotMatch" style="shape=parallelogram;perimeter=parallelogramPerimeter;whiteSpace=wrap;html=1;fixedSize=1;rounded=0;" parent="1" vertex="1">
                    <mxGeometry x="825" y="740" width="120" height="40" as="geometry"/>
                </mxCell>
                <mxCell id="hywFJxfZgF1XUIs8Vgq--137" value="Pass" style="shape=parallelogram;perimeter=parallelogramPerimeter;whiteSpace=wrap;html=1;fixedSize=1;rounded=0;" parent="1" vertex="1">
                    <mxGeometry x="705" y="840" width="120" height="40" as="geometry"/>
                </mxCell>
                <mxCell id="hywFJxfZgF1XUIs8Vgq--138" value="ADaM" style="rounded=0;whiteSpace=wrap;html=1;" parent="1" vertex="1">
                    <mxGeometry x="585" width="240" height="40" as="geometry"/>
                </mxCell>
                <mxCell id="hywFJxfZgF1XUIs8Vgq--140" value="" style="edgeStyle=none;html=1;" parent="1" source="hywFJxfZgF1XUIs8Vgq--141" target="hywFJxfZgF1XUIs8Vgq--144" edge="1">
                    <mxGeometry relative="1" as="geometry"/>
                </mxCell>
                <mxCell id="hywFJxfZgF1XUIs8Vgq--141" value="DEV" style="rounded=0;whiteSpace=wrap;html=1;" parent="1" vertex="1">
                    <mxGeometry x="1052" y="40" width="120" height="40" as="geometry"/>
                </mxCell>
                <mxCell id="hywFJxfZgF1XUIs8Vgq--142" value="" style="edgeStyle=none;html=1;fillColor=#f8cecc;gradientColor=#ea6b66;strokeColor=#b85450;" parent="1" source="hywFJxfZgF1XUIs8Vgq--144" target="hywFJxfZgF1XUIs8Vgq--145" edge="1">
                    <mxGeometry relative="1" as="geometry"/>
                </mxCell>
                <mxCell id="hywFJxfZgF1XUIs8Vgq--143" value="" style="edgeStyle=none;html=1;" parent="1" source="hywFJxfZgF1XUIs8Vgq--144" target="hywFJxfZgF1XUIs8Vgq--148" edge="1">
                    <mxGeometry relative="1" as="geometry"/>
                </mxCell>
                <mxCell id="hywFJxfZgF1XUIs8Vgq--144" value="exist(code)" style="rhombus;whiteSpace=wrap;html=1;rounded=0;" parent="1" vertex="1">
                    <mxGeometry x="1072" y="120" width="80" height="80" as="geometry"/>
                </mxCell>
                <mxCell id="hywFJxfZgF1XUIs8Vgq--145" value="Building" style="shape=parallelogram;perimeter=parallelogramPerimeter;whiteSpace=wrap;html=1;fixedSize=1;rounded=0;" parent="1" vertex="1">
                    <mxGeometry x="932" y="140" width="120" height="40" as="geometry"/>
                </mxCell>
                <mxCell id="hywFJxfZgF1XUIs8Vgq--146" style="edgeStyle=none;html=1;exitX=0;exitY=0.5;exitDx=0;exitDy=0;entryX=1;entryY=0.5;entryDx=0;entryDy=0;fillColor=#f8cecc;gradientColor=#ea6b66;strokeColor=#b85450;" parent="1" source="hywFJxfZgF1XUIs8Vgq--148" target="hywFJxfZgF1XUIs8Vgq--149" edge="1">
                    <mxGeometry relative="1" as="geometry"/>
                </mxCell>
                <mxCell id="hywFJxfZgF1XUIs8Vgq--147" value="" style="edgeStyle=none;html=1;" parent="1" source="hywFJxfZgF1XUIs8Vgq--148" target="hywFJxfZgF1XUIs8Vgq--152" edge="1">
                    <mxGeometry relative="1" as="geometry"/>
                </mxCell>
                <mxCell id="hywFJxfZgF1XUIs8Vgq--148" value="exist(data &amp;amp;&amp;amp; output &amp;amp;&amp;amp; log&lt;br&gt;)" style="rhombus;whiteSpace=wrap;html=1;rounded=0;" parent="1" vertex="1">
                    <mxGeometry x="1072" y="240" width="80" height="80" as="geometry"/>
                </mxCell>
                <mxCell id="hywFJxfZgF1XUIs8Vgq--149" value="Building" style="shape=parallelogram;perimeter=parallelogramPerimeter;whiteSpace=wrap;html=1;fixedSize=1;rounded=0;" parent="1" vertex="1">
                    <mxGeometry x="932" y="260" width="120" height="40" as="geometry"/>
                </mxCell>
                <mxCell id="hywFJxfZgF1XUIs8Vgq--150" style="edgeStyle=none;html=1;exitX=0;exitY=0.5;exitDx=0;exitDy=0;entryX=1;entryY=0.5;entryDx=0;entryDy=0;fillColor=#f8cecc;gradientColor=#ea6b66;strokeColor=#b85450;" parent="1" source="hywFJxfZgF1XUIs8Vgq--152" target="hywFJxfZgF1XUIs8Vgq--153" edge="1">
                    <mxGeometry relative="1" as="geometry"/>
                </mxCell>
                <mxCell id="hywFJxfZgF1XUIs8Vgq--151" value="" style="edgeStyle=none;html=1;" parent="1" source="hywFJxfZgF1XUIs8Vgq--152" target="hywFJxfZgF1XUIs8Vgq--156" edge="1">
                    <mxGeometry relative="1" as="geometry"/>
                </mxCell>
                <mxCell id="hywFJxfZgF1XUIs8Vgq--152" value="code &amp;gt; (data | output | log)" style="rhombus;whiteSpace=wrap;html=1;rounded=0;" parent="1" vertex="1">
                    <mxGeometry x="1072" y="360" width="80" height="80" as="geometry"/>
                </mxCell>
                <mxCell id="hywFJxfZgF1XUIs8Vgq--153" value="Building" style="shape=parallelogram;perimeter=parallelogramPerimeter;whiteSpace=wrap;html=1;fixedSize=1;rounded=0;" parent="1" vertex="1">
                    <mxGeometry x="932" y="380" width="120" height="40" as="geometry"/>
                </mxCell>
                <mxCell id="hywFJxfZgF1XUIs8Vgq--154" style="edgeStyle=none;html=1;exitX=0;exitY=0.5;exitDx=0;exitDy=0;fillColor=#f8cecc;gradientColor=#ea6b66;strokeColor=#b85450;" parent="1" source="hywFJxfZgF1XUIs8Vgq--156" target="hywFJxfZgF1XUIs8Vgq--157" edge="1">
                    <mxGeometry relative="1" as="geometry"/>
                </mxCell>
                <mxCell id="hywFJxfZgF1XUIs8Vgq--155" value="" style="edgeStyle=none;html=1;" parent="1" source="hywFJxfZgF1XUIs8Vgq--156" target="hywFJxfZgF1XUIs8Vgq--160" edge="1">
                    <mxGeometry relative="1" as="geometry"/>
                </mxCell>
                <mxCell id="hywFJxfZgF1XUIs8Vgq--156" value="data &amp;lt; output&amp;nbsp;&amp;lt; log" style="rhombus;whiteSpace=wrap;html=1;rounded=0;" parent="1" vertex="1">
                    <mxGeometry x="1072" y="480" width="80" height="80" as="geometry"/>
                </mxCell>
                <mxCell id="hywFJxfZgF1XUIs8Vgq--157" value="Unexpected" style="shape=parallelogram;perimeter=parallelogramPerimeter;whiteSpace=wrap;html=1;fixedSize=1;rounded=0;" parent="1" vertex="1">
                    <mxGeometry x="932" y="500" width="120" height="40" as="geometry"/>
                </mxCell>
                <mxCell id="hywFJxfZgF1XUIs8Vgq--158" style="edgeStyle=none;html=1;exitX=0;exitY=0.5;exitDx=0;exitDy=0;entryX=1;entryY=0.5;entryDx=0;entryDy=0;fillColor=#f8cecc;gradientColor=#ea6b66;strokeColor=#b85450;" parent="1" source="hywFJxfZgF1XUIs8Vgq--160" target="hywFJxfZgF1XUIs8Vgq--161" edge="1">
                    <mxGeometry relative="1" as="geometry"/>
                </mxCell>
                <mxCell id="hywFJxfZgF1XUIs8Vgq--159" style="edgeStyle=none;html=1;exitX=0.5;exitY=1;exitDx=0;exitDy=0;" parent="1" source="hywFJxfZgF1XUIs8Vgq--160" target="hywFJxfZgF1XUIs8Vgq--162" edge="1">
                    <mxGeometry relative="1" as="geometry"/>
                </mxCell>
                <mxCell id="hywFJxfZgF1XUIs8Vgq--160" value="adam &amp;gt; (data | output&amp;nbsp;| log)" style="rhombus;whiteSpace=wrap;html=1;rounded=0;" parent="1" vertex="1">
                    <mxGeometry x="1072" y="600" width="80" height="80" as="geometry"/>
                </mxCell>
                <mxCell id="hywFJxfZgF1XUIs8Vgq--161" value="Changed" style="shape=parallelogram;perimeter=parallelogramPerimeter;whiteSpace=wrap;html=1;fixedSize=1;rounded=0;" parent="1" vertex="1">
                    <mxGeometry x="932" y="620" width="120" height="40" as="geometry"/>
                </mxCell>
                <mxCell id="hywFJxfZgF1XUIs8Vgq--162" value="Ready" style="shape=parallelogram;perimeter=parallelogramPerimeter;whiteSpace=wrap;html=1;fixedSize=1;rounded=0;" parent="1" vertex="1">
                    <mxGeometry x="1052" y="720" width="120" height="40" as="geometry"/>
                </mxCell>
                <mxCell id="hywFJxfZgF1XUIs8Vgq--163" style="edgeStyle=none;html=1;exitX=0.5;exitY=1;exitDx=0;exitDy=0;entryX=0.5;entryY=0;entryDx=0;entryDy=0;" parent="1" source="hywFJxfZgF1XUIs8Vgq--164" target="hywFJxfZgF1XUIs8Vgq--167" edge="1">
                    <mxGeometry relative="1" as="geometry"/>
                </mxCell>
                <mxCell id="hywFJxfZgF1XUIs8Vgq--164" value="QC" style="rounded=0;whiteSpace=wrap;html=1;" parent="1" vertex="1">
                    <mxGeometry x="1172" y="40" width="120" height="40" as="geometry"/>
                </mxCell>
                <mxCell id="hywFJxfZgF1XUIs8Vgq--165" value="" style="edgeStyle=none;html=1;" parent="1" source="hywFJxfZgF1XUIs8Vgq--167" target="hywFJxfZgF1XUIs8Vgq--170" edge="1">
                    <mxGeometry relative="1" as="geometry"/>
                </mxCell>
                <mxCell id="hywFJxfZgF1XUIs8Vgq--166" style="edgeStyle=none;html=1;exitX=1;exitY=0.5;exitDx=0;exitDy=0;entryX=0;entryY=0.5;entryDx=0;entryDy=0;fillColor=#f8cecc;gradientColor=#ea6b66;strokeColor=#b85450;" parent="1" source="hywFJxfZgF1XUIs8Vgq--167" target="hywFJxfZgF1XUIs8Vgq--180" edge="1">
                    <mxGeometry relative="1" as="geometry"/>
                </mxCell>
                <mxCell id="hywFJxfZgF1XUIs8Vgq--167" value="exist(code)" style="rhombus;whiteSpace=wrap;html=1;rounded=0;" parent="1" vertex="1">
                    <mxGeometry x="1192" y="120" width="80" height="80" as="geometry"/>
                </mxCell>
                <mxCell id="hywFJxfZgF1XUIs8Vgq--168" value="" style="edgeStyle=none;html=1;" parent="1" source="hywFJxfZgF1XUIs8Vgq--170" target="hywFJxfZgF1XUIs8Vgq--173" edge="1">
                    <mxGeometry relative="1" as="geometry"/>
                </mxCell>
                <mxCell id="hywFJxfZgF1XUIs8Vgq--169" style="edgeStyle=none;html=1;exitX=1;exitY=0.5;exitDx=0;exitDy=0;fillColor=#f8cecc;gradientColor=#ea6b66;strokeColor=#b85450;" parent="1" source="hywFJxfZgF1XUIs8Vgq--170" target="hywFJxfZgF1XUIs8Vgq--181" edge="1">
                    <mxGeometry relative="1" as="geometry"/>
                </mxCell>
                <mxCell id="hywFJxfZgF1XUIs8Vgq--170" value="code &amp;lt; (data | qc_result | log)" style="rhombus;whiteSpace=wrap;html=1;rounded=0;" parent="1" vertex="1">
                    <mxGeometry x="1192" y="240" width="80" height="80" as="geometry"/>
                </mxCell>
                <mxCell id="hywFJxfZgF1XUIs8Vgq--171" value="" style="edgeStyle=none;html=1;" parent="1" source="hywFJxfZgF1XUIs8Vgq--173" target="hywFJxfZgF1XUIs8Vgq--176" edge="1">
                    <mxGeometry relative="1" as="geometry"/>
                </mxCell>
                <mxCell id="hywFJxfZgF1XUIs8Vgq--172" style="edgeStyle=none;html=1;exitX=1;exitY=0.5;exitDx=0;exitDy=0;entryX=0;entryY=0.5;entryDx=0;entryDy=0;fillColor=#f8cecc;gradientColor=#ea6b66;strokeColor=#b85450;" parent="1" source="hywFJxfZgF1XUIs8Vgq--173" target="hywFJxfZgF1XUIs8Vgq--182" edge="1">
                    <mxGeometry relative="1" as="geometry"/>
                </mxCell>
                <mxCell id="hywFJxfZgF1XUIs8Vgq--173" value="exist(data &amp;amp;&amp;amp; log &amp;amp;&amp;amp; qc_ results&lt;br&gt;)" style="rhombus;whiteSpace=wrap;html=1;rounded=0;" parent="1" vertex="1">
                    <mxGeometry x="1192" y="360" width="80" height="80" as="geometry"/>
                </mxCell>
                <mxCell id="hywFJxfZgF1XUIs8Vgq--174" value="" style="edgeStyle=none;html=1;" parent="1" source="hywFJxfZgF1XUIs8Vgq--176" target="hywFJxfZgF1XUIs8Vgq--179" edge="1">
                    <mxGeometry relative="1" as="geometry"/>
                </mxCell>
                <mxCell id="hywFJxfZgF1XUIs8Vgq--175" style="edgeStyle=none;html=1;exitX=1;exitY=0.5;exitDx=0;exitDy=0;entryX=0;entryY=0.5;entryDx=0;entryDy=0;fillColor=#f8cecc;gradientColor=#ea6b66;strokeColor=#b85450;" parent="1" source="hywFJxfZgF1XUIs8Vgq--176" target="hywFJxfZgF1XUIs8Vgq--183" edge="1">
                    <mxGeometry relative="1" as="geometry"/>
                </mxCell>
                <mxCell id="hywFJxfZgF1XUIs8Vgq--176" value="data &amp;lt; qc_ results &amp;lt;&lt;br&gt;log" style="rhombus;whiteSpace=wrap;html=1;rounded=0;" parent="1" vertex="1">
                    <mxGeometry x="1192" y="480" width="80" height="80" as="geometry"/>
                </mxCell>
                <mxCell id="hywFJxfZgF1XUIs8Vgq--177" style="edgeStyle=none;html=1;exitX=1;exitY=0.5;exitDx=0;exitDy=0;entryX=0;entryY=0.5;entryDx=0;entryDy=0;fillColor=#f8cecc;gradientColor=#ea6b66;strokeColor=#b85450;" parent="1" source="hywFJxfZgF1XUIs8Vgq--179" target="hywFJxfZgF1XUIs8Vgq--184" edge="1">
                    <mxGeometry relative="1" as="geometry"/>
                </mxCell>
                <mxCell id="hywFJxfZgF1XUIs8Vgq--178" value="" style="edgeStyle=none;html=1;" parent="1" source="hywFJxfZgF1XUIs8Vgq--179" target="hywFJxfZgF1XUIs8Vgq--187" edge="1">
                    <mxGeometry relative="1" as="geometry"/>
                </mxCell>
                <mxCell id="hywFJxfZgF1XUIs8Vgq--179" value="adam &amp;lt; (data&amp;nbsp; | qc_ results&lt;br&gt;&amp;nbsp;log)" style="rhombus;whiteSpace=wrap;html=1;rounded=0;" parent="1" vertex="1">
                    <mxGeometry x="1192" y="600" width="80" height="80" as="geometry"/>
                </mxCell>
                <mxCell id="hywFJxfZgF1XUIs8Vgq--180" value="Building" style="shape=parallelogram;perimeter=parallelogramPerimeter;whiteSpace=wrap;html=1;fixedSize=1;rounded=0;" parent="1" vertex="1">
                    <mxGeometry x="1292" y="140" width="120" height="40" as="geometry"/>
                </mxCell>
                <mxCell id="hywFJxfZgF1XUIs8Vgq--181" value="Building" style="shape=parallelogram;perimeter=parallelogramPerimeter;whiteSpace=wrap;html=1;fixedSize=1;rounded=0;" parent="1" vertex="1">
                    <mxGeometry x="1292" y="260" width="120" height="40" as="geometry"/>
                </mxCell>
                <mxCell id="hywFJxfZgF1XUIs8Vgq--182" value="Building" style="shape=parallelogram;perimeter=parallelogramPerimeter;whiteSpace=wrap;html=1;fixedSize=1;rounded=0;" parent="1" vertex="1">
                    <mxGeometry x="1292" y="380" width="120" height="40" as="geometry"/>
                </mxCell>
                <mxCell id="hywFJxfZgF1XUIs8Vgq--183" value="Unexpected" style="shape=parallelogram;perimeter=parallelogramPerimeter;whiteSpace=wrap;html=1;fixedSize=1;rounded=0;" parent="1" vertex="1">
                    <mxGeometry x="1292" y="500" width="120" height="40" as="geometry"/>
                </mxCell>
                <mxCell id="hywFJxfZgF1XUIs8Vgq--184" value="Changed" style="shape=parallelogram;perimeter=parallelogramPerimeter;whiteSpace=wrap;html=1;fixedSize=1;rounded=0;" parent="1" vertex="1">
                    <mxGeometry x="1292" y="620" width="120" height="40" as="geometry"/>
                </mxCell>
                <mxCell id="hywFJxfZgF1XUIs8Vgq--185" style="edgeStyle=none;html=1;exitX=1;exitY=0.5;exitDx=0;exitDy=0;fillColor=#f8cecc;gradientColor=#ea6b66;strokeColor=#b85450;" parent="1" source="hywFJxfZgF1XUIs8Vgq--187" target="hywFJxfZgF1XUIs8Vgq--188" edge="1">
                    <mxGeometry relative="1" as="geometry"/>
                </mxCell>
                <mxCell id="hywFJxfZgF1XUIs8Vgq--186" style="edgeStyle=none;html=1;exitX=0.5;exitY=1;exitDx=0;exitDy=0;" parent="1" source="hywFJxfZgF1XUIs8Vgq--187" target="hywFJxfZgF1XUIs8Vgq--189" edge="1">
                    <mxGeometry relative="1" as="geometry"/>
                </mxCell>
                <mxCell id="hywFJxfZgF1XUIs8Vgq--187" value="isClean(qc_result)" style="rhombus;whiteSpace=wrap;html=1;rounded=0;" parent="1" vertex="1">
                    <mxGeometry x="1192" y="720" width="80" height="80" as="geometry"/>
                </mxCell>
                <mxCell id="hywFJxfZgF1XUIs8Vgq--188" value="NotMatch" style="shape=parallelogram;perimeter=parallelogramPerimeter;whiteSpace=wrap;html=1;fixedSize=1;rounded=0;" parent="1" vertex="1">
                    <mxGeometry x="1292" y="740" width="120" height="40" as="geometry"/>
                </mxCell>
                <mxCell id="hywFJxfZgF1XUIs8Vgq--189" value="Pass" style="shape=parallelogram;perimeter=parallelogramPerimeter;whiteSpace=wrap;html=1;fixedSize=1;rounded=0;" parent="1" vertex="1">
                    <mxGeometry x="1172" y="840" width="120" height="40" as="geometry"/>
                </mxCell>
                <mxCell id="hywFJxfZgF1XUIs8Vgq--190" value="TFLs" style="rounded=0;whiteSpace=wrap;html=1;" parent="1" vertex="1">
                    <mxGeometry x="1052" width="240" height="40" as="geometry"/>
                </mxCell>
            </root>
        </mxGraphModel>
    </diagram>
</mxfile>